{"title":"Chris Young ft.Cassadee Pope - Think of You (2016 Country)","uid":13539959,"size":74045335,"categoryP":"video","categoryS":"music_videos","magnet":"?xt=urn:btih:01a9397768317fbf9fef1b13bd4accffa7900e41&amp;dn=Chris+Young+ft.Cassadee+Pope+-+Think+of+You+%282016+Country%29&amp;tr=udp%3A%2F%2Ftracker.leechers-paradise.org%3A6969&amp;tr=udp%3A%2F%2Fzer0day.ch%3A1337&amp;tr=udp%3A%2F%2Fopen.demonii.com%3A1337&amp;tr=udp%3A%2F%2Ftracker.coppersurfer.tk%3A6969&amp;tr=udp%3A%2F%2Fexodus.desync.com%3A6969","seeders":0,"leechers":0,"uploader":"MeRaDil","files":1,"time":1455474727,"description":"CHRIS YOUNG &amp; CASSADEE POPE - THINK OF YOU\r\n\r\n \nhttp://gifyu.com/images/young.png\r\n \nhttp://gifyu.com/images/young-1.png\r\n \nhttp://gifyu.com/images/young-2.png\r\n\r\n\r\nMEDIA INFO\r\nGeneral\r\nChris Young ft. Cassadee Pope - Think of You\r\nFormat                                   : MPEG-4\r\nFormat profile                           : Base Media\r\nCodec ID                                 : isom\r\nFile size                                : 70.6 MiB\r\nDuration                                 : 3mn 40s\r\nOverall bit rate                         : 2 681 Kbps\r\nMusicVid name                            : Think of You\r\nAlbum                                    : I'm Comin' Over\r\nPerformer                                : Chris Young &amp; Cassadee Pope\r\nGenre                                    : Country\r\nContentType                              : Music Video\r\nRecorded date                            : 2016\r\nWriting application                      : Lavf56.32.100 / MeRaDil\r\nCover                                    : Yes\r\nRelease date                             : USA - january 22 - 2016\r\n\r\nVideo\r\nID                                       : 1\r\nFormat                                   : AVC\r\nFormat/Info                              : Advanced Video Codec\r\nFormat profile                           :   \r\nFormat settings, CABAC                   : Yes\r\nFormat settings, ReFrames                : 2 frames\r\nCodec ID                                 : avc1\r\nCodec ID/Info                            : Advanced Video Coding\r\nDuration                                 : 3mn 40s\r\nBit rate                                 : 2 402 Kbps\r\nWidth                                    : 1 920 pixels\r\nHeight                                   : 1 080 pixels\r\nDisplay aspect ratio                     : 16:9\r\nFrame rate mode                          : Variable\r\nFrame rate                               : 23.976 fps\r\nStream size                              : 63.3 MiB (90%)\r\n\r\nAudio\r\nID                                       : 2\r\nFormat                                   : AAC\r\nFormat/Info                              : Advanced Audio Codec\r\nFormat profile                           : LC\r\nCodec ID                                 : 40\r\nDuration                                 : 3mn 40s\r\nBit rate mode                            : Constant\r\nBit rate                                 : 256 Kbps\r\nChannel(s)                               : 2 channels\r\nChannel positions                        : Front: L R\r\nSampling rate                            : 44.1 KHz\r\nCompression mode                         : Lossy\r\nStream size                              : 6.74 MiB (10%)","torrent":{"xt":"urn:btih:01a9397768317fbf9fef1b13bd4accffa7900e41","amp;dn":"Chris+Young+ft.Cassadee+Pope+-+Think+of+You+%282016+Country%29","amp;tr":["udp%3A%2F%2Ftracker.leechers-paradise.org%3A6969","udp%3A%2F%2Fzer0day.ch%3A1337","udp%3A%2F%2Fopen.demonii.com%3A1337","udp%3A%2F%2Ftracker.coppersurfer.tk%3A6969","udp%3A%2F%2Fexodus.desync.com%3A6969"],"infoHash":"01a9397768317fbf9fef1b13bd4accffa7900e41","infoHashBuffer":{"type":"Buffer","data":[1,169,57,119,104,49,127,191,159,239,27,19,189,74,204,255,167,144,14,65]},"announce":[],"urlList":[]}}